<?xml version="1.0" encoding="utf-8"?><svg xmlns="http://www.w3.org/2000/svg" xmlns:xlink="http://www.w3.org/1999/xlink"><symbol viewBox="0 0 512 512" id="facebook" xmlns="http://www.w3.org/2000/svg"><path d="M512 256C512 114.6 397.4 0 256 0S0 114.6 0 256s114.6 256 256 256c1.5 0 3 0 4.5-.1V312.7h-55v-64.1h55v-47.2c0-54.7 33.4-84.5 82.2-84.5 23.4 0 43.5 1.7 49.3 2.5v57.2h-33.6c-26.5 0-31.7 12.6-31.7 31.1v40.8h63.5l-8.3 64.1h-55.2v189.5C433.7 471.4 512 372.9 512 256z"/></symbol><symbol viewBox="0 0 512 512" id="instagram" xmlns="http://www.w3.org/2000/svg"><path d="M305 256c0 27.063-21.938 49-49 49s-49-21.938-49-49 21.938-49 49-49 49 21.938 49 49zm0 0"/><path d="M370.594 169.305a45.546 45.546 0 00-10.996-16.903 45.514 45.514 0 00-16.903-10.996c-5.18-2.011-12.96-4.406-27.293-5.058-15.504-.707-20.152-.86-59.402-.86-39.254 0-43.902.149-59.402.856-14.332.656-22.118 3.05-27.293 5.062a45.483 45.483 0 00-16.903 10.996 45.572 45.572 0 00-11 16.903c-2.011 5.18-4.406 12.965-5.058 27.297-.707 15.5-.86 20.148-.86 59.402 0 39.25.153 43.898.86 59.402.652 14.332 3.047 22.114 5.058 27.293a45.563 45.563 0 0010.996 16.903 45.514 45.514 0 0016.903 10.996c5.18 2.015 12.965 4.41 27.297 5.062 15.5.707 20.144.856 59.398.856 39.258 0 43.906-.149 59.402-.856 14.332-.652 22.118-3.047 27.297-5.062a48.68 48.68 0 0027.899-27.899c2.011-5.18 4.406-12.96 5.062-27.293.707-15.504.856-20.152.856-59.402 0-39.254-.149-43.902-.856-59.402-.652-14.332-3.047-22.118-5.062-27.297zM256 331.485c-41.691 0-75.488-33.794-75.488-75.485s33.797-75.484 75.488-75.484c41.688 0 75.484 33.793 75.484 75.484S297.688 331.484 256 331.484zm78.469-136.313c-9.742 0-17.64-7.899-17.64-17.64s7.898-17.641 17.64-17.641 17.64 7.898 17.64 17.64c-.004 9.742-7.898 17.64-17.64 17.64zm0 0"/><path d="M256 0C114.637 0 0 114.637 0 256s114.637 256 256 256 256-114.637 256-256S397.363 0 256 0zm146.113 316.605c-.71 15.649-3.199 26.333-6.832 35.684a75.164 75.164 0 01-42.992 42.992c-9.348 3.633-20.035 6.117-35.68 6.832-15.675.715-20.683.887-60.605.887-39.926 0-44.93-.172-60.61-.887-15.644-.715-26.331-3.199-35.68-6.832a72.018 72.018 0 01-26.038-16.957 72.044 72.044 0 01-16.953-26.035c-3.633-9.348-6.121-20.035-6.832-35.68-.723-15.68-.891-20.687-.891-60.609s.168-44.93.887-60.605c.71-15.649 3.195-26.332 6.828-35.684a72.013 72.013 0 0116.96-26.035 72.003 72.003 0 0126.036-16.957c9.352-3.633 20.035-6.117 35.684-6.832C211.07 109.172 216.078 109 256 109s44.93.172 60.605.89c15.649.712 26.332 3.196 35.684 6.825a72.061 72.061 0 0126.04 16.96 72.027 72.027 0 0116.952 26.036c3.637 9.352 6.121 20.035 6.836 35.684.715 15.675.883 20.683.883 60.605s-.168 44.93-.887 60.605zm0 0"/></symbol><symbol viewBox="0 0 512 512" id="linkedin" xmlns="http://www.w3.org/2000/svg"><path d="M256 0C114.637 0 0 114.637 0 256s114.637 256 256 256 256-114.637 256-256S397.363 0 256 0zm-74.39 387h-62.348V199.426h62.347zm-31.173-213.188h-.406c-20.922 0-34.453-14.402-34.453-32.402 0-18.406 13.945-32.41 35.274-32.41 21.328 0 34.453 14.004 34.859 32.41 0 18-13.531 32.403-35.274 32.403zM406.423 387h-62.34V286.652c0-25.218-9.027-42.418-31.586-42.418-17.223 0-27.48 11.602-31.988 22.801-1.649 4.008-2.051 9.61-2.051 15.215V387h-62.344s.817-169.977 0-187.574h62.344v26.558c8.285-12.78 23.11-30.96 56.188-30.96 41.02 0 71.777 26.808 71.777 84.421zm0 0"/></symbol><symbol viewBox="0 0 378 363.897" id="logo-icon" xmlns="http://www.w3.org/2000/svg"><path class="da" d="M150.575 134.799a53.613 53.613 0 0030.455 15.185v-28.957a23.3 23.3 0 1115.353 0v28.957a53.852 53.852 0 0030.458-91.448l-38.135-38.131-38.131 38.131a53.926 53.926 0 000 76.263zm124.482 70.452a23.233 23.233 0 01-21.9-15.627h-28.964a53.852 53.852 0 0091.448 30.455l38.13-38.132-38.128-38.129a53.852 53.852 0 00-91.45 30.455h28.957a23.262 23.262 0 1121.9 30.979zM258.453 85.195a32.481 32.481 0 1064.962 0V52.714h-32.482a32.48 32.48 0 00-32.48 32.481zm104.695 52.451L378 122.794l-14.852-14.848a21 21 0 100 29.7zm-94.064-93.09a21 21 0 000-29.7L254.232 0 239.38 14.852a21.001 21.001 0 0029.7 29.7zm-166.14 114.09a23.233 23.233 0 0121.9 15.626h28.957a53.852 53.852 0 00-91.443-30.454l-38.131 38.13 38.131 38.132a53.852 53.852 0 0091.448-30.455h-28.957a23.262 23.262 0 11-21.9-30.979zm-15.876-40.97a32.481 32.481 0 000-64.962H54.587v32.481a32.481 32.481 0 0032.481 32.481zm-42.512 19.97a21.001 21.001 0 00-29.7-29.7L0 122.793l14.852 14.853a21 21 0 0029.704 0zm94.064-93.09a21 21 0 000-29.7L123.768 0l-14.851 14.852a21.001 21.001 0 0029.7 29.7zm88.221 184.543a53.61 53.61 0 00-30.459-15.183v28.958a23.3 23.3 0 11-15.353 0v-28.958a53.852 53.852 0 00-30.455 91.448l38.131 38.131 38.136-38.134a53.924 53.924 0 000-76.262zm64.092 17.122a32.481 32.481 0 000 64.962h32.481v-32.481a32.481 32.481 0 00-32.481-32.481zm42.511-19.969a21.001 21.001 0 0029.7 29.7l14.852-14.852-14.852-14.852a21 21 0 00-29.7.004zm-94.064 93.089a21 21 0 000 29.7l14.852 14.851 14.852-14.851a21.001 21.001 0 00-29.7-29.7zm-119.832-40.639a32.481 32.481 0 10-64.961 0v32.481h32.481a32.481 32.481 0 0032.48-32.481zm-104.696-52.45L0 241.104l14.852 14.852a21 21 0 100-29.7zm94.065 93.089a21 21 0 000 29.7l14.852 14.851 14.852-14.851a21.001 21.001 0 10-29.7-29.7z"/></symbol><symbol viewBox="0 0 83.752 83.758" id="organic-food" xmlns="http://www.w3.org/2000/svg"><path d="M54.439 83.758H29.313A29.346 29.346 0 010 54.445a1.4 1.4 0 011.4-1.4h80.96a1.4 1.4 0 011.4 1.4 29.347 29.347 0 01-29.321 29.313zM2.828 55.841A26.555 26.555 0 0029.313 80.97h25.126a26.555 26.555 0 0026.485-25.126zm51.611-13.959H30.712a1.4 1.4 0 01-1.4-1.4v-20.7a5.785 5.785 0 015.232-5.815c.155-.008.257-.011.357-.011a5.563 5.563 0 012.786.745v-1.9a5.785 5.785 0 015.23-5.815c.155-.008.258-.011.359-.011a5.55 5.55 0 012.786.751V5.591c0-.1 0-.2.007-.3A5.579 5.579 0 0151.945.009a5.826 5.826 0 014.974 3.892l1.717-1.742c.172-.172.343-.327.521-.473a7.338 7.338 0 0110.317 1 7.475 7.475 0 01-.617 10.01l-1.58 1.58a5.8 5.8 0 013.907 4.929c.01.155.011.257.011.359a5.584 5.584 0 01-4.958 5.543A5.549 5.549 0 0167 28.231a5.777 5.777 0 01-5.843 5.286h-1.886a5.579 5.579 0 01-4.832 8.372zm-22.334-2.79h22.334a2.792 2.792 0 000-5.583 1.4 1.4 0 110-2.792h6.742a2.975 2.975 0 003.035-2.7 2.786 2.786 0 00-2.644-2.882h-.153a1.4 1.4 0 110-2.792h4.193a2.788 2.788 0 002.793-2.786v-.153a2.975 2.975 0 00-2.956-2.644h-1.237a1.4 1.4 0 01-.987-2.383l3.671-3.671a4.688 4.688 0 00.409-6.272 4.539 4.539 0 00-6.369-.6c-.11.091-.216.187-.32.289l-3.787 3.843a1.4 1.4 0 01-2.39-.978V5.829a2.989 2.989 0 00-2.7-3.037 2.767 2.767 0 00-2.881 2.644v7.134a1.4 1.4 0 01-1.4 1.394 1.4 1.4 0 01-1.395-1.4v-.009a2.8 2.8 0 00-2.789-2.79h-.151a2.977 2.977 0 00-2.644 3.007v6.766a1.4 1.4 0 01-1.4 1.395 1.4 1.4 0 01-1.394-1.4v-.01a2.794 2.794 0 00-2.788-2.788h-.152a2.977 2.977 0 00-2.644 3.007v19.33z"/><path d="M21.349 47.871L60.433 8.787l1.974 1.974-39.084 39.084z"/><path d="M51.644 11.181h2.792v6.979h-2.792zm-8.375 6.979h2.792v8.375h-2.792zm-8.375 6.966h2.792v9.771h-2.792z"/><path d="M53.04 16.765h6.979v2.792H53.04zm-8.375 8.361h8.375v2.792h-8.375zm-8.375 8.375h9.771v2.792H36.29zM16.36 23.74a6.987 6.987 0 01-6.979-6.979v-.721l-1.175-.918a6.421 6.421 0 117.651-10.221l.483.347.5-.382c.1-.077.194-.141.286-.2a6.441 6.441 0 018.921 1.781l.006.009a6.425 6.425 0 01-1.481 8.619l-1.233.965v.715a6.986 6.986 0 01-6.979 6.985zM11.477 5.972a3.629 3.629 0 00-1.8 6.781 1.393 1.393 0 01.169.113l1.787 1.4a1.392 1.392 0 01.536 1.1v1.4a4.188 4.188 0 108.375 0v-1.4a1.4 1.4 0 01.536-1.1l1.787-1.4a3.61 3.61 0 00-4.195-5.874l-1.471 1.107a1.4 1.4 0 01-1.66.021l-1.4-1a1.5 1.5 0 01-.152-.127 3.613 3.613 0 00-2.512-1.021zm19.229-4.576h2.792v2.792h-2.792zm8.376 44.668h2.792v2.792h-2.792zm36.295-26.515v-2.792a2.792 2.792 0 100-5.583V8.382a5.583 5.583 0 010 11.167zM2.789 20.952h2.792v2.792H2.789zM0 15.369h2.792v2.792H0zm60.022 34.889H57.23a2.792 2.792 0 10-5.583 0h-2.792a5.583 5.583 0 1111.167 0zm-43.272-6.98H5.583a5.583 5.583 0 010-11.167h.176a5.585 5.585 0 0110.815 0h.176a5.583 5.583 0 010 11.167zM5.583 34.904a2.792 2.792 0 000 5.583H16.75a2.792 2.792 0 100-5.583h-1.4a1.4 1.4 0 01-1.4-1.4 2.792 2.792 0 10-5.583 0 1.4 1.4 0 01-1.4 1.4z"/><path d="M13.958 48.861H8.375a1.4 1.4 0 01-1.4-1.4v-5.579a1.4 1.4 0 011.4-1.4h5.583a1.4 1.4 0 011.4 1.4v5.583a1.4 1.4 0 01-1.4 1.396zM9.77 46.069h2.792v-2.792H9.771zm64.211-1.396a4.188 4.188 0 114.187-4.188 4.193 4.193 0 01-4.187 4.188zm0-5.582a1.4 1.4 0 101.4 1.4 1.4 1.4 0 00-1.4-1.4z"/><path d="M73.986 50.26a9.771 9.771 0 119.771-9.771 9.783 9.783 0 01-9.771 9.771zm0-16.749a6.979 6.979 0 106.979 6.979 6.987 6.987 0 00-6.979-6.982z"/></symbol><symbol viewBox="0 0 475.082 475.081" id="right-quotation-mark" xmlns="http://www.w3.org/2000/svg"><path d="M164.454 36.547H54.818c-15.229 0-28.171 5.33-38.832 15.987C5.33 63.193 0 76.135 0 91.365v109.632c0 15.229 5.327 28.169 15.986 38.826 10.66 10.656 23.606 15.988 38.832 15.988h63.953c7.611 0 14.084 2.666 19.414 7.994 5.33 5.325 7.994 11.8 7.994 19.417v9.131c0 20.177-7.139 37.397-21.413 51.675-14.275 14.271-31.499 21.409-51.678 21.409h-18.27c-4.952 0-9.233 1.813-12.851 5.427-3.615 3.614-5.424 7.898-5.424 12.847v36.549c0 4.941 1.809 9.233 5.424 12.848 3.621 3.613 7.898 5.427 12.851 5.427h18.271c19.797 0 38.688-3.86 56.676-11.566 17.987-7.707 33.546-18.131 46.68-31.265 13.131-13.135 23.553-28.691 31.261-46.679 7.707-17.987 11.562-36.877 11.562-56.671V91.361c0-15.23-5.33-28.171-15.987-38.828s-23.602-15.986-38.827-15.986zm294.635 15.987c-10.656-10.657-23.599-15.987-38.828-15.987H310.629c-15.229 0-28.171 5.33-38.828 15.987-10.656 10.66-15.984 23.601-15.984 38.831v109.632c0 15.229 5.328 28.169 15.984 38.826 10.657 10.656 23.6 15.988 38.828 15.988h63.953c7.611 0 14.089 2.666 19.418 7.994 5.324 5.328 7.994 11.8 7.994 19.417v9.131c0 20.177-7.139 37.397-21.416 51.675-14.274 14.271-31.494 21.409-51.675 21.409h-18.274c-4.948 0-9.233 1.813-12.847 5.427-3.617 3.614-5.428 7.898-5.428 12.847v36.549c0 4.941 1.811 9.233 5.428 12.848 3.613 3.613 7.898 5.427 12.847 5.427h18.274c19.794 0 38.684-3.86 56.674-11.566 17.984-7.707 33.541-18.131 46.676-31.265 13.134-13.135 23.562-28.695 31.265-46.679 7.706-17.983 11.563-36.877 11.563-56.671V91.361c-.003-15.23-5.328-28.171-15.992-38.827z"/></symbol><symbol viewBox="0 0 512.002 512.002" id="star" xmlns="http://www.w3.org/2000/svg"><path d="M511.267 197.258a14.995 14.995 0 00-12.107-10.209l-158.723-23.065-70.985-143.827a14.998 14.998 0 00-26.901 0l-70.988 143.827-158.72 23.065a14.998 14.998 0 00-8.312 25.585l114.848 111.954-27.108 158.083a14.999 14.999 0 0021.763 15.812l141.967-74.638 141.961 74.637a15 15 0 0021.766-15.813l-27.117-158.081 114.861-111.955a14.994 14.994 0 003.795-15.375z"/></symbol><symbol viewBox="0 0 512 512" id="twitter" xmlns="http://www.w3.org/2000/svg"><path d="M256 0C114.637 0 0 114.637 0 256s114.637 256 256 256 256-114.637 256-256S397.363 0 256 0zm116.887 199.602c.113 2.52.168 5.05.168 7.593 0 77.645-59.102 167.18-167.184 167.184h.004-.004c-33.184 0-64.062-9.727-90.066-26.395 4.597.543 9.277.813 14.015.813 27.532 0 52.868-9.39 72.98-25.152-25.722-.477-47.41-17.465-54.894-40.813a58.481 58.481 0 0011.043 1.063 58.8 58.8 0 0015.496-2.07c-26.886-5.384-47.14-29.145-47.14-57.598 0-.266 0-.504.007-.75a58.354 58.354 0 0026.614 7.347c-15.778-10.527-26.149-28.523-26.149-48.91a58.597 58.597 0 017.957-29.535c28.977 35.555 72.282 58.937 121.118 61.394a58.708 58.708 0 01-1.528-13.398c0-32.437 26.317-58.754 58.766-58.754 16.902 0 32.168 7.145 42.89 18.567a117.855 117.855 0 0037.313-14.262c-4.395 13.715-13.707 25.222-25.84 32.5 11.887-1.422 23.215-4.574 33.742-9.254a119.412 119.412 0 01-29.308 30.43zm0 0"/></symbol></svg>