<svg id="Component_1_1" data-name="Component 1 – 1" xmlns="http://www.w3.org/2000/svg" width="236" height="74.608"><defs><style>.cls-2{fill:#00dbd0}</style></defs><g id="Group_201" data-name="Group 201" transform="translate(-106 -26.459)"><text id="organic" transform="translate(193 72)" fill="#374b5c" font-size="42" font-family="SegoeUI-Bold,Segoe UI" font-weight="700"><tspan x="0" y="0">organic</tspan></text></g><g id="Group_220" data-name="Group 220"><g id="Group_219" data-name="Group 219"><path id="Path_36514" data-name="Path 36514" class="cls-2" d="M278.578 65.139a10.992 10.992 0 006.244 3.113v-5.937a4.778 4.778 0 113.148 0v5.937a11.041 11.041 0 006.243-18.752l-7.813-7.815-7.822 7.815a11.056 11.056 0 000 15.639z" transform="translate(-247.706 -37.501)"/><path id="Path_36515" data-name="Path 36515" class="cls-2" d="M468.43 277.369a4.763 4.763 0 01-4.491-3.2H458a11.041 11.041 0 0018.749 6.244l7.818-7.818-7.818-7.818A11.041 11.041 0 00458 271.018h5.937a4.769 4.769 0 114.491 6.352z" transform="translate(-412.036 -235.287)"/><path id="Path_36516" data-name="Path 36516" class="cls-2" d="M527.987 114.347a6.659 6.659 0 1013.319 0v-6.659h-6.659a6.659 6.659 0 00-6.66 6.659z" transform="translate(-474.997 -96.88)"/><path id="Path_36517" data-name="Path 36517" class="cls-2" d="M675.97 215.295l3.045-3.045-3.045-3.05a4.306 4.306 0 100 6.09z" transform="translate(-601.515 -187.074)"/><path id="Path_36518" data-name="Path 36518" class="cls-2" d="M483.809 9.135a4.306 4.306 0 000-6.09L480.764 0l-3.045 3.045a4.306 4.306 0 006.09 6.09z" transform="translate(-428.639)"/><path id="Path_36519" data-name="Path 36519" class="cls-2" d="M65.632 267.814a4.763 4.763 0 014.491 3.2h5.937a11.041 11.041 0 00-18.749-6.244l-7.818 7.818 7.818 7.818a11.041 11.041 0 0018.749-6.244h-5.937a4.769 4.769 0 11-4.491-6.351z" transform="translate(-44.526 -235.287)"/><path id="Path_36520" data-name="Path 36520" class="cls-2" d="M118.173 121.007a6.659 6.659 0 000-13.319h-6.659v6.659a6.659 6.659 0 006.659 6.66z" transform="translate(-100.322 -96.88)"/><path id="Path_36521" data-name="Path 36521" class="cls-2" d="M9.135 215.295a4.306 4.306 0 00-6.09-6.09L0 212.25l3.045 3.045a4.306 4.306 0 006.09 0z" transform="translate(0 -187.074)"/><path id="Path_36522" data-name="Path 36522" class="cls-2" d="M217.286 9.135a4.306 4.306 0 000-6.09L214.241 0 211.2 3.045a4.306 4.306 0 006.09 6.09z" transform="translate(-188.865)"/><path id="Path_36523" data-name="Path 36523" class="cls-2" d="M294.213 440.111a10.991 10.991 0 00-6.244-3.111v5.937a4.778 4.778 0 11-3.148 0V437a11.041 11.041 0 00-6.244 18.749l7.818 7.818 7.818-7.818a11.056 11.056 0 000-15.638z" transform="translate(-247.706 -393.139)"/><path id="Path_36524" data-name="Path 36524" class="cls-2" d="M534.646 503a6.659 6.659 0 000 13.319h6.659v-6.659a6.66 6.66 0 00-6.659-6.66z" transform="translate(-474.997 -452.518)"/><path id="Path_36525" data-name="Path 36525" class="cls-2" d="M669.88 450.9a4.306 4.306 0 006.09 6.09l3.045-3.045-3.045-3.045a4.306 4.306 0 00-6.09 0z" transform="translate(-601.515 -404.511)"/><path id="Path_36526" data-name="Path 36526" class="cls-2" d="M477.719 641.069a4.306 4.306 0 000 6.09l3.045 3.045 3.045-3.045a4.306 4.306 0 10-6.09-6.09z" transform="translate(-428.639 -575.596)"/><path id="Path_36527" data-name="Path 36527" class="cls-2" d="M124.833 509.659a6.659 6.659 0 10-13.319 0v6.659h6.659a6.659 6.659 0 006.66-6.659z" transform="translate(-100.322 -452.518)"/><path id="Path_36528" data-name="Path 36528" class="cls-2" d="M3.045 450.9L0 453.944l3.045 3.045a4.306 4.306 0 100-6.09z" transform="translate(0 -404.511)"/><path id="Path_36529" data-name="Path 36529" class="cls-2" d="M211.2 641.069a4.306 4.306 0 000 6.09l3.045 3.045 3.045-3.045a4.306 4.306 0 10-6.09-6.09z" transform="translate(-188.865 -575.596)"/></g></g></svg>