<svg xmlns="http://www.w3.org/2000/svg" width="175" height="56.229"><text transform="translate(65 33.541)" font-size="31" font-family="SegoeUI-Bold,Segoe UI" font-weight="700" fill="#fff"><tspan x="0" y="0">organic</tspan></text><path d="M23.267 20.829a8.284 8.284 0 004.706 2.346v-4.474a3.6 3.6 0 112.372 0v4.474a8.321 8.321 0 004.706-14.131l-5.892-5.892-5.892 5.892a8.333 8.333 0 000 11.785zm19.235 10.887a3.59 3.59 0 01-3.385-2.415h-4.476a8.321 8.321 0 0014.131 4.706l5.892-5.892-5.892-5.892a8.321 8.321 0 00-14.131 4.706h4.474a3.594 3.594 0 113.385 4.787zm-2.566-18.552a5.019 5.019 0 1010.038 0V8.145h-5.019a5.019 5.019 0 00-5.019 5.019zm16.178 8.105l2.295-2.295-2.295-2.295a3.245 3.245 0 100 4.59zM41.581 6.885a3.245 3.245 0 000-4.59L39.281 0l-2.295 2.295a3.247 3.247 0 104.595 4.59zM15.907 24.514a3.59 3.59 0 013.385 2.415h4.474a8.321 8.321 0 00-14.131-4.706l-5.892 5.892 5.892 5.892a8.321 8.321 0 0014.131-4.706h-4.474a3.594 3.594 0 11-3.385-4.787zm-2.453-6.331a5.019 5.019 0 000-10.038H8.435v5.019a5.019 5.019 0 005.019 5.019zm-6.569 3.086a3.246 3.246 0 00-4.59-4.59L0 18.974l2.295 2.295a3.245 3.245 0 004.59 0zM21.42 6.885a3.246 3.246 0 000-4.59L19.125 0 16.83 2.295a3.246 3.246 0 104.59 4.59zm13.631 28.516a8.284 8.284 0 00-4.706-2.344v4.475a3.6 3.6 0 11-2.372 0v-4.475a8.321 8.321 0 00-4.706 14.131l5.892 5.892 5.892-5.892a8.333 8.333 0 000-11.787zm9.904 2.645a5.019 5.019 0 000 10.038h5.019v-5.019a5.019 5.019 0 00-5.019-5.019zm6.569-3.085a3.246 3.246 0 004.59 4.59l2.295-2.295-2.295-2.295a3.246 3.246 0 00-4.59 0zM36.989 49.344a3.246 3.246 0 000 4.59l2.295 2.295 2.297-2.295a3.246 3.246 0 00-4.59-4.59zm-18.516-6.279a5.019 5.019 0 10-10.038 0v5.019h5.019a5.019 5.019 0 005.019-5.019zM2.295 34.961L0 37.256l2.295 2.295a3.246 3.246 0 100-4.59zM16.83 49.344a3.245 3.245 0 000 4.59l2.295 2.295 2.295-2.295a3.246 3.246 0 00-4.59-4.59z" fill="#fff"/></svg>