<svg xmlns="http://www.w3.org/2000/svg" width="59.161" height="48.09"><path d="M31.48 26.359a32.912 32.912 0 00-11.349-16.185C14.424 5.7 7.809 3.749 1.177 1.135c-1.141 10.243-2.8 23.248 2.486 32.66a28.82 28.82 0 0013.86 12.338 27.4 27.4 0 006.547 1.858 9.2 9.2 0 001.157.1 77.188 77.188 0 00-14.225-28.447 1.35 1.35 0 012.111-1.681A79.9 79.9 0 0127.907 47.67a6.587 6.587 0 002.7-1.891c4.883-5.643.915-19.281.873-19.42zM58.995 0s-4.908 2.073-5.337 2.263c-6.118 2.7-13.645 6.264-16.344 12.649a28.624 28.624 0 00-1.684 14.866l.06.5c.224 1.917.529 4.541 2.754 5.876.079.047.163.094.252.139a34.235 34.235 0 018.606-20.653 1.446 1.446 0 011.982-.146 1.312 1.312 0 01.152 1.9 31.559 31.559 0 00-7.952 19.394 7.193 7.193 0 001.664-.369 24.04 24.04 0 008.928-5.772c.36-.349.712-.713 1.049-1.083C60.71 21.252 58.995 0 58.995 0z" fill="#00dbd0"/></svg>