<svg xmlns="http://www.w3.org/2000/svg" width="175" height="56.229" viewBox="0 0 175 56.229">
    <defs>
        <style>.a,.b{fill:#fff;}.a{font-size:31px;font-family:SegoeUI-Bold, Segoe UI;font-weight:700;}</style>
    </defs>
    <g transform="translate(-438 -3798.459)">
        <g transform="translate(438 3798.459)">
            <g transform="translate(65.211 3.914)">
                <text class="a" transform="translate(-0.211 29.627)">
                    <tspan x="0" y="0">organic</tspan>
                </text>
            </g>
            <path class="b" d="M277.78,59.361a8.284,8.284,0,0,0,4.706,2.346V57.233a3.6,3.6,0,1,1,2.372,0v4.474a8.321,8.321,0,0,0,4.706-14.131l-5.892-5.892-5.892,5.892A8.333,8.333,0,0,0,277.78,59.361Z" transform="translate(-254.513 -38.532)"/>
            <path class="b" d="M465.861,273.469a3.59,3.59,0,0,1-3.385-2.415H458a8.321,8.321,0,0,0,14.131,4.706l5.892-5.892-5.892-5.892A8.321,8.321,0,0,0,458,268.682h4.474a3.594,3.594,0,1,1,3.385,4.787Z" transform="translate(-423.359 -241.753)"/>
            <path class="b" d="M527.987,112.707a5.019,5.019,0,1,0,10.038,0v-5.019h-5.019A5.019,5.019,0,0,0,527.987,112.707Z" transform="translate(-488.051 -99.543)"/>
            <path class="b" d="M674.159,213.484l2.295-2.295-2.295-2.295a3.245,3.245,0,1,0,0,4.59Z" transform="translate(-618.045 -192.215)"/>
            <path class="b" d="M482,6.885a3.245,3.245,0,0,0,0-4.59L479.7,0l-2.295,2.295A3.246,3.246,0,1,0,482,6.885Z" transform="translate(-440.419)"/>
            <path class="b" d="M61.656,266.267a3.59,3.59,0,0,1,3.385,2.415h4.474a8.321,8.321,0,0,0-14.131-4.706l-5.892,5.892,5.892,5.892a8.321,8.321,0,0,0,14.131-4.706H65.041a3.594,3.594,0,1,1-3.385-4.787Z" transform="translate(-45.749 -241.753)"/>
            <path class="b" d="M116.533,117.726a5.019,5.019,0,0,0,0-10.038h-5.019v5.019A5.019,5.019,0,0,0,116.533,117.726Z" transform="translate(-103.079 -99.543)"/>
            <path class="b" d="M6.885,213.484a3.245,3.245,0,0,0-4.59-4.59L0,211.189l2.295,2.295A3.245,3.245,0,0,0,6.885,213.484Z" transform="translate(0 -192.215)"/>
            <path class="b" d="M215.475,6.885a3.246,3.246,0,0,0,0-4.59L213.18,0l-2.295,2.295a3.245,3.245,0,1,0,4.59,4.59Z" transform="translate(-194.055)"/>
            <path class="b" d="M289.564,439.344A8.284,8.284,0,0,0,284.858,437v4.475a3.6,3.6,0,1,1-2.372,0V437a8.321,8.321,0,0,0-4.706,14.131l5.892,5.892,5.892-5.892A8.333,8.333,0,0,0,289.564,439.344Z" transform="translate(-254.513 -403.943)"/>
            <path class="b" d="M533.006,503a5.019,5.019,0,0,0,0,10.038h5.019v-5.019A5.019,5.019,0,0,0,533.006,503Z" transform="translate(-488.051 -464.954)"/>
            <path class="b" d="M669.569,450.588a3.246,3.246,0,0,0,4.59,4.59l2.295-2.295-2.295-2.295A3.246,3.246,0,0,0,669.569,450.588Z" transform="translate(-618.045 -415.627)"/>
            <path class="b" d="M477.408,640.758a3.246,3.246,0,0,0,0,4.59l2.295,2.295L482,645.348a3.246,3.246,0,0,0-4.59-4.59Z" transform="translate(-440.419 -591.414)"/>
            <path class="b" d="M121.552,508.019a5.019,5.019,0,1,0-10.038,0v5.019h5.019A5.019,5.019,0,0,0,121.552,508.019Z" transform="translate(-103.079 -464.954)"/>
            <path class="b" d="M2.295,450.588,0,452.883l2.295,2.295a3.246,3.246,0,1,0,0-4.59Z" transform="translate(0 -415.627)"/>
            <path class="b" d="M210.885,640.758a3.245,3.245,0,0,0,0,4.59l2.295,2.295,2.295-2.295a3.246,3.246,0,0,0-4.59-4.59Z" transform="translate(-194.055 -591.414)"/>
        </g>
    </g>
</svg>